<?xml version="1.0" encoding="iso-8859-1"?>
<!-- Generator: Adobe Illustrator 19.0.0, SVG Export Plug-In . SVG Version: 6.00 Build 0)  -->
<svg version="1.1" id="Capa_1" xmlns="http://www.w3.org/2000/svg" xmlns:xlink="http://www.w3.org/1999/xlink" x="0px" y="0px"
	 viewBox="0 0 469.6 469.6" style="enable-background:new 0 0 469.6 469.6;" xml:space="preserve">
<g>
	<g>
		<g>
			<path d="M423.8,12.8C416.2,4.8,405.4,0,393.4,0H113.8c-12,0-22.4,4.8-30.4,12.8c-7.6,7.6-12.8,18.4-12.8,30.4v22.4H59
				c-7.2,0-13.6,2.8-18.4,7.6C35.8,78,33,84.4,33,91.6s2.8,13.6,7.6,18.4c4.8,4.8,11.2,7.6,18.4,7.6h11.6v19.6H59
				c-7.2,0-13.6,2.8-18.4,7.6c-4.8,4.8-7.6,11.2-7.6,18.4s2.8,13.6,7.6,18.4c4.8,4.8,11.2,7.6,18.4,7.6h11.6v19.6H59
				c-7.2,0-13.6,2.8-18.4,7.6c-4.8,4.8-7.6,11.2-7.6,18.4c0,7.2,2.8,13.6,7.6,18.4c4.8,4.8,11.2,7.6,18.4,7.6h11.6v19.6H59
				c-7.2,0-13.6,2.8-18.4,7.6c-4.8,4.8-7.6,11.2-7.6,18.4s2.8,13.6,7.6,18.4c4.8,4.8,11.2,7.6,18.4,7.6h11.6V352H59
				c-7.2,0-13.6,2.8-18.4,7.6c-4.8,4.8-7.6,11.2-7.6,18.4c0,7.2,2.8,13.6,7.6,18.4c4.8,4.8,11.2,7.6,18.4,7.6h11.6v22.4
				c0,12,4.8,22.4,12.8,30.4c7.6,7.6,18.4,12.8,30.4,12.8h279.6c12,0,22.4-4.8,30.4-12.8c7.6-7.6,12.8-18.4,12.8-30.4V43.2
				C436.6,31.2,431.8,20.8,423.8,12.8z M59.4,106.8c-4,0-8-1.6-10.8-4.4c-2.8-2.8-4.4-6.4-4.4-10.8c0-4,1.6-8,4.4-10.8
				c2.8-2.8,6.4-4.4,10.8-4.4h16.8H93c4,0,8,1.6,10.8,4.4c2.8,2.8,4.4,6.4,4.4,10.8c0,4-1.6,8-4.4,10.8c-2.8,2.8-6.4,4.4-10.8,4.4
				H76.2H59.4z M59.4,178c-4,0-8-1.6-10.8-4.4c-2.8-2.8-4.4-6.4-4.4-10.8c0-4,1.6-8,4.4-10.8c2.8-2.8,6.4-4.4,10.8-4.4h16.8H93
				c4,0,8,1.6,10.8,4.4c2.8,2.8,4.4,6.4,4.4,10.8c0,4-1.6,8-4.4,10.8c-2.8,2.8-6.4,4.4-10.8,4.4H76.2H59.4z M59.4,249.2L59.4,249.2
				c-4,0-8-1.6-10.8-4.4c-2.8-2.8-4.4-6.8-4.4-10.8s1.6-8,4.4-10.8c2.8-2.8,6.4-4.4,10.8-4.4h16.8H93c4,0,8,1.6,10.8,4.4
				c2.8,2.8,4.4,6.4,4.4,10.8c0,4-1.6,8-4.4,10.8s-6.4,4.4-10.8,4.4H76.2H59.4z M59.4,320.4c-4,0-8-1.6-10.8-4.4
				c-2.8-2.8-4.4-6.4-4.4-10.8c0-4,1.6-8,4.4-10.8c2.8-2.8,6.4-4.4,10.8-4.4h16.8H93c4,0,8,1.6,10.8,4.4c2.8,2.8,4.4,6.4,4.4,10.8
				c0,4-1.6,8-4.4,10.8s-6.4,4.4-10.8,4.4H76.2H59.4z M59.4,391.6c-4,0-8-1.6-10.8-4.4c-2.8-2.8-4.4-6.4-4.4-10.8
				c0-4,1.6-8,4.4-10.8c2.8-2.8,6.4-4.4,10.8-4.4h16.8H93c4,0,8,1.6,10.8,4.4c2.8,2.8,4.4,6.4,4.4,10.8c0,4-1.6,8-4.4,10.8
				s-6.4,4.4-10.8,4.4H76.2H59.4z M425.8,424.8c0,8.8-3.6,16.8-9.6,22.8s-14,9.6-22.8,9.6H113.8c-8.8,0-16.8-3.6-22.8-9.6
				s-9.6-14-9.6-22.8v-22.4H93c7.2,0,13.6-2.8,18.4-7.6c4.8-4.8,7.6-11.2,7.6-18.4s-2.8-13.6-7.6-18.4c-4.8-4.8-11.2-7.6-18.4-7.6
				H81.4v-19.6H93c7.2,0,13.6-2.8,18.4-7.6c4.8-4.8,7.6-11.2,7.6-18.4c0-7.2-2.8-13.6-7.6-18.4c-4.8-4.8-11.2-7.6-18.4-7.6H81.4
				v-19.6H93c7.2,0,13.6-2.8,18.4-7.6c4.8-4.8,7.6-11.2,7.6-18.4c0-7.2-2.8-13.6-7.6-18.4c-4.8-4.8-11.2-7.6-18.4-7.6H81.4v-19.6H93
				c7.2,0,13.6-2.8,18.4-7.6c4.8-4.8,7.6-11.2,7.6-18.4s-2.8-13.6-7.6-18.4c-4.8-4.8-11.2-7.6-18.4-7.6H81.4V116H93
				c7.2,0,13.6-2.8,18.4-7.6c4.8-4.8,7.6-11.2,7.6-18.4c0-7.2-2.8-13.6-7.6-18.4C106.6,66.8,100.2,64,93,64H81.4V41.6
				c0-8.8,3.6-16.8,9.6-22.8s14-9.6,22.8-9.6h279.6c8.8,0,16.8,3.6,22.8,9.6s9.6,14,9.6,22.8V424.8z"/>
			<path d="M368.2,277.6l-36-19.2c-13.6-7.2-16-4.8-26,6.4c-1.6,1.6-3.2,3.6-5.2,5.6c-0.8,0.8-1.2,1.2-2,2c-2.4,2.8-6,6.8-8,6.4
				c-5.2-1.2-13.2-5.6-20.8-11.2c-10.4-7.2-20-15.2-24.4-20.4c-2.4-2.8-10-11.6-15.2-19.6c-2.8-4.4-4.8-8-5.2-9.2
				c0-1.6,2.4-4.4,5.2-7.2c7.2-6.8,15.2-14.8,9.6-30.4c0-0.4,0-0.4-0.4-0.8l-15.6-35.2c-3.6-8-8.4-12.4-14-13.6
				c-5.2-1.2-10.4,0-15.6,2.8h-0.4c-4.4,2.4-9.2,6.4-13.2,10.8c-12.4,13.6-22,34.8-20,48.8c1.6,11.2,6.4,24,13.2,36.4
				c14.8,26.8,40,54.8,68,75.2c28.4,20.8,60,33.6,87.2,30c7.2-0.8,14-3.2,20.4-6.8c6.8-4,14.8-12,20-20.4c2.4-4,4.4-8.4,5.2-12.8
				c1.2-4.8,0.8-9.2-1.2-13.2C372.2,280.8,370.6,279.2,368.2,277.6z M364.6,294c-0.8,2.8-2,6.4-4,9.6c-4.4,7.2-10.8,13.6-16,16.8
				c-5.2,2.8-10.8,4.8-16.8,5.6c-24,3.2-52.8-8.8-79.2-28c-26.8-19.6-50.8-46.4-64.8-72c-6.4-11.6-10.4-22.8-12-32.8
				c-1.6-10.8,6.8-28.4,17.2-40c3.6-3.6,6.8-6.8,10.4-8.8c0,0,0,0,0.4,0c2.8-1.6,5.6-2.4,8-1.6c2.4,0.8,4.8,3.2,7.2,7.6l15.6,35.2
				c3.2,8.8-2,14.4-6.8,18.8c-4.8,4.4-8.8,8.8-8.4,15.2c0,3.6,3.2,9.2,6.8,14.8c5.6,8.4,13.6,18,16,20.8c4.8,5.6,15.6,14.4,26.4,22
				c8.8,6,17.6,10.8,24.4,12.8c8.8,2,14.8-5.2,18.8-10c0.4-0.8,1.2-1.2,1.6-1.6c2.4-2.4,4-4,5.2-5.6c5.6-6,6.8-7.6,13.2-4.4
				l35.6,19.2c0.8,0.4,1.2,0.8,1.6,1.6C365,289.6,365,291.6,364.6,294z"/>
		</g>
	</g>
</g>
<g>
</g>
<g>
</g>
<g>
</g>
<g>
</g>
<g>
</g>
<g>
</g>
<g>
</g>
<g>
</g>
<g>
</g>
<g>
</g>
<g>
</g>
<g>
</g>
<g>
</g>
<g>
</g>
<g>
</g>
</svg>
